<svg width="38" height="38" viewBox="0 0 38 38" fill="none" xmlns="http://www.w3.org/2000/svg">
<g filter="url(#filter0_d_1_35)">
<path d="M12.1361 0.764056C9.48817 2.42191 7.69822 5.34839 7.69822 8.69293C7.69822 12.0375 9.48817 14.964 12.1805 16.6218C7.63905 16.6218 4 13.0754 4 8.69293C4 6.59007 4.85719 4.57332 6.38301 3.08637C7.90882 1.59942 9.97827 0.764056 12.1361 0.764056ZM29.2515 2.92648L31.3669 4.98799L8.33432 27.4339L6.21893 25.3724L29.2515 2.92648ZM20.1095 6.4296L17.9201 5.0889L15.7899 6.53051L16.4112 4.07977L14.355 2.55166L16.9438 2.37866L17.8018 0L18.7929 2.34983L21.3521 2.39308L19.355 4.0221L20.1095 6.4296ZM15.2278 11.6338L13.5118 10.5815L11.855 11.7059L12.358 9.80298L10.7456 8.60644L12.7574 8.47669L13.4231 6.61701L14.1775 8.44786L16.1893 8.49111L14.6361 9.74531L15.2278 11.6338ZM29.1479 17.3426C29.1479 19.4455 28.2907 21.4622 26.7649 22.9492C25.2391 24.4361 23.1697 25.2715 21.0118 25.2715C19.2071 25.2715 17.5355 24.6949 16.1893 23.729L27.5651 12.643C28.5562 13.9548 29.1479 15.5839 29.1479 17.3426ZM22.6391 26.8284L26.7367 25.1706L26.3817 30L22.6391 26.8284ZM29.0444 22.9361L30.7456 18.9428L34 22.6045L29.0444 22.9361ZM30.7456 15.7857L29.0592 11.778L34 12.124L30.7456 15.7857ZM15.287 25.1706L19.3846 26.8284L15.642 29.9856L15.287 25.1706Z" fill="white"/>
<path d="M25.9541 28.9824L23.5928 26.9814L26.1787 25.9346L25.9541 28.9824ZM18.4277 26.9805L16.0684 28.9707L15.8438 25.9346L18.4277 26.9805ZM30.6494 4.9873L8.33398 26.7354L6.93555 25.3721L29.251 3.62402L30.6494 4.9873ZM27.4912 13.4121C28.2221 14.5514 28.6475 15.9006 28.6475 17.3428C28.6474 19.3087 27.8465 21.1966 26.416 22.5908C24.9849 23.9855 23.041 24.7715 21.0117 24.7715C19.5324 24.7715 18.1498 24.3594 16.9824 23.6533L27.4912 13.4121ZM32.9473 22.1729L29.8223 22.3828L30.8955 19.8643L32.9473 22.1729ZM10.4004 1.45996C8.4424 3.2583 7.19824 5.82908 7.19824 8.69336C7.19837 11.5581 8.44383 14.1282 10.4268 15.9268C7.0086 15.1614 4.5002 12.2074 4.5 8.69336C4.5 6.72732 5.30175 4.83857 6.73242 3.44434C7.74784 2.45488 9.02143 1.7732 10.4004 1.45996ZM32.9502 12.5518L30.8984 14.8604L29.835 12.333L32.9502 12.5518ZM13.7148 8.63867L13.8398 8.94043L14.167 8.94727L14.8115 8.96094L14.3223 9.35645L14.0576 9.57031L14.1592 9.89453L14.3516 10.5098L13.7734 10.1553L13.498 9.98633L13.2314 10.168L12.6797 10.541L12.8418 9.93066L12.9277 9.60352L12.6562 9.40137L12.1387 9.01758L12.79 8.97559L13.1172 8.9541L13.2285 8.64551L13.4551 8.00879L13.7148 8.63867ZM18.332 2.54395L18.459 2.84473L18.7842 2.84961L19.9766 2.86914L19.0391 3.63477L18.7764 3.84863L18.8779 4.17188L19.2334 5.30664L18.1816 4.66211L17.9062 4.49414L17.6396 4.6748L16.5967 5.37988L16.8955 4.20312L16.9785 3.87793L16.71 3.67871L15.7432 2.95996L16.9775 2.87793L17.3037 2.85547L17.4141 2.54785L17.8379 1.37305L18.332 2.54395Z" stroke="black"/>
</g>
<defs>
<filter id="filter0_d_1_35" x="0" y="0" width="38" height="38" filterUnits="userSpaceOnUse" color-interpolation-filters="sRGB">
<feFlood flood-opacity="0" result="BackgroundImageFix"/>
<feColorMatrix in="SourceAlpha" type="matrix" values="0 0 0 0 0 0 0 0 0 0 0 0 0 0 0 0 0 0 127 0" result="hardAlpha"/>
<feOffset dy="4"/>
<feGaussianBlur stdDeviation="2"/>
<feComposite in2="hardAlpha" operator="out"/>
<feColorMatrix type="matrix" values="0 0 0 0 0 0 0 0 0 0 0 0 0 0 0 0 0 0 0.25 0"/>
<feBlend mode="normal" in2="BackgroundImageFix" result="effect1_dropShadow_1_35"/>
<feBlend mode="normal" in="SourceGraphic" in2="effect1_dropShadow_1_35" result="shape"/>
</filter>
</defs>
</svg>
